<mxfile host="app.diagrams.net" agent="Mozilla/5.0 (Windows NT 10.0; Win64; x64) AppleWebKit/537.36 (KHTML, like Gecko) Chrome/134.0.0.0 YaBrowser/25.4.0.0 Safari/537.36" version="27.0.3" pages="4">
  <diagram name="Насекомые" id="pczSLoUAp6Cx0T1tjyxj">
    <mxGraphModel dx="570" dy="293" grid="1" gridSize="10" guides="1" tooltips="1" connect="1" arrows="1" fold="1" page="1" pageScale="1" pageWidth="827" pageHeight="1169" math="0" shadow="0">
      <root>
        <mxCell id="0" />
        <mxCell id="1" parent="0" />
        <mxCell id="ryIdYR8z_rkLLB81yYg2-5" value="" style="group" vertex="1" connectable="0" parent="1">
          <mxGeometry x="30" y="10" width="80" height="80" as="geometry" />
        </mxCell>
        <mxCell id="ryIdYR8z_rkLLB81yYg2-3" value="пчела" style="rhombus;whiteSpace=wrap;html=1;movable=1;resizable=1;rotatable=1;deletable=1;editable=1;locked=0;connectable=1;" vertex="1" parent="ryIdYR8z_rkLLB81yYg2-5">
          <mxGeometry width="80" height="80" as="geometry" />
        </mxCell>
        <mxCell id="ryIdYR8z_rkLLB81yYg2-4" value="1" style="rhombus;whiteSpace=wrap;html=1;movable=1;resizable=1;rotatable=1;deletable=1;editable=1;locked=0;connectable=1;" vertex="1" parent="ryIdYR8z_rkLLB81yYg2-5">
          <mxGeometry x="25" width="30" height="30" as="geometry" />
        </mxCell>
        <mxCell id="ryIdYR8z_rkLLB81yYg2-6" value="" style="group" vertex="1" connectable="0" parent="1">
          <mxGeometry x="120" y="10" width="80" height="80" as="geometry" />
        </mxCell>
        <mxCell id="ryIdYR8z_rkLLB81yYg2-7" value="шмель" style="rhombus;whiteSpace=wrap;html=1;movable=1;resizable=1;rotatable=1;deletable=1;editable=1;locked=0;connectable=1;" vertex="1" parent="ryIdYR8z_rkLLB81yYg2-6">
          <mxGeometry width="80" height="80" as="geometry" />
        </mxCell>
        <mxCell id="ryIdYR8z_rkLLB81yYg2-8" value="2" style="rhombus;whiteSpace=wrap;html=1;movable=1;resizable=1;rotatable=1;deletable=1;editable=1;locked=0;connectable=1;" vertex="1" parent="ryIdYR8z_rkLLB81yYg2-6">
          <mxGeometry x="25" width="30" height="30" as="geometry" />
        </mxCell>
        <mxCell id="ryIdYR8z_rkLLB81yYg2-9" value="" style="group" vertex="1" connectable="0" parent="1">
          <mxGeometry x="210" y="10" width="80" height="80" as="geometry" />
        </mxCell>
        <mxCell id="ryIdYR8z_rkLLB81yYg2-10" value="жук-оленёк" style="rhombus;whiteSpace=wrap;html=1;movable=1;resizable=1;rotatable=1;deletable=1;editable=1;locked=0;connectable=1;" vertex="1" parent="ryIdYR8z_rkLLB81yYg2-9">
          <mxGeometry width="80" height="80" as="geometry" />
        </mxCell>
        <mxCell id="ryIdYR8z_rkLLB81yYg2-11" value="3" style="rhombus;whiteSpace=wrap;html=1;movable=1;resizable=1;rotatable=1;deletable=1;editable=1;locked=0;connectable=1;" vertex="1" parent="ryIdYR8z_rkLLB81yYg2-9">
          <mxGeometry x="25" width="30" height="30" as="geometry" />
        </mxCell>
        <mxCell id="ryIdYR8z_rkLLB81yYg2-12" value="" style="group" vertex="1" connectable="0" parent="1">
          <mxGeometry x="300" y="10" width="80" height="80" as="geometry" />
        </mxCell>
        <mxCell id="ryIdYR8z_rkLLB81yYg2-13" value="златка" style="rhombus;whiteSpace=wrap;html=1;movable=1;resizable=1;rotatable=1;deletable=1;editable=1;locked=0;connectable=1;" vertex="1" parent="ryIdYR8z_rkLLB81yYg2-12">
          <mxGeometry width="80" height="80" as="geometry" />
        </mxCell>
        <mxCell id="ryIdYR8z_rkLLB81yYg2-14" value="4" style="rhombus;whiteSpace=wrap;html=1;movable=1;resizable=1;rotatable=1;deletable=1;editable=1;locked=0;connectable=1;" vertex="1" parent="ryIdYR8z_rkLLB81yYg2-12">
          <mxGeometry x="25" width="30" height="30" as="geometry" />
        </mxCell>
        <mxCell id="ryIdYR8z_rkLLB81yYg2-15" value="" style="group" vertex="1" connectable="0" parent="1">
          <mxGeometry x="390" y="10" width="80" height="80" as="geometry" />
        </mxCell>
        <mxCell id="ryIdYR8z_rkLLB81yYg2-16" value="бабочка адмирал" style="rhombus;whiteSpace=wrap;html=1;movable=1;resizable=1;rotatable=1;deletable=1;editable=1;locked=0;connectable=1;" vertex="1" parent="ryIdYR8z_rkLLB81yYg2-15">
          <mxGeometry width="80" height="80" as="geometry" />
        </mxCell>
        <mxCell id="ryIdYR8z_rkLLB81yYg2-17" value="5" style="rhombus;whiteSpace=wrap;html=1;movable=1;resizable=1;rotatable=1;deletable=1;editable=1;locked=0;connectable=1;" vertex="1" parent="ryIdYR8z_rkLLB81yYg2-15">
          <mxGeometry x="25" width="30" height="30" as="geometry" />
        </mxCell>
        <mxCell id="ryIdYR8z_rkLLB81yYg2-18" value="" style="group" vertex="1" connectable="0" parent="1">
          <mxGeometry x="30" y="100" width="80" height="80" as="geometry" />
        </mxCell>
        <mxCell id="ryIdYR8z_rkLLB81yYg2-19" value="сарана" style="rhombus;whiteSpace=wrap;html=1;movable=1;resizable=1;rotatable=1;deletable=1;editable=1;locked=0;connectable=1;" vertex="1" parent="ryIdYR8z_rkLLB81yYg2-18">
          <mxGeometry width="80" height="80" as="geometry" />
        </mxCell>
        <mxCell id="ryIdYR8z_rkLLB81yYg2-20" value="6" style="rhombus;whiteSpace=wrap;html=1;movable=1;resizable=1;rotatable=1;deletable=1;editable=1;locked=0;connectable=1;" vertex="1" parent="ryIdYR8z_rkLLB81yYg2-18">
          <mxGeometry x="25" width="30" height="30" as="geometry" />
        </mxCell>
        <mxCell id="ryIdYR8z_rkLLB81yYg2-21" value="" style="group" vertex="1" connectable="0" parent="1">
          <mxGeometry x="120" y="100" width="80" height="80" as="geometry" />
        </mxCell>
        <mxCell id="ryIdYR8z_rkLLB81yYg2-22" value="муравей" style="rhombus;whiteSpace=wrap;html=1;movable=1;resizable=1;rotatable=1;deletable=1;editable=1;locked=0;connectable=1;" vertex="1" parent="ryIdYR8z_rkLLB81yYg2-21">
          <mxGeometry width="80" height="80" as="geometry" />
        </mxCell>
        <mxCell id="ryIdYR8z_rkLLB81yYg2-23" value="7" style="rhombus;whiteSpace=wrap;html=1;movable=1;resizable=1;rotatable=1;deletable=1;editable=1;locked=0;connectable=1;" vertex="1" parent="ryIdYR8z_rkLLB81yYg2-21">
          <mxGeometry x="25" width="30" height="30" as="geometry" />
        </mxCell>
        <mxCell id="ryIdYR8z_rkLLB81yYg2-24" value="" style="group" vertex="1" connectable="0" parent="1">
          <mxGeometry x="210" y="100" width="80" height="80" as="geometry" />
        </mxCell>
        <mxCell id="ryIdYR8z_rkLLB81yYg2-25" value="стрекоза" style="rhombus;whiteSpace=wrap;html=1;movable=1;resizable=1;rotatable=1;deletable=1;editable=1;locked=0;connectable=1;" vertex="1" parent="ryIdYR8z_rkLLB81yYg2-24">
          <mxGeometry width="80" height="80" as="geometry" />
        </mxCell>
        <mxCell id="ryIdYR8z_rkLLB81yYg2-26" value="8" style="rhombus;whiteSpace=wrap;html=1;movable=1;resizable=1;rotatable=1;deletable=1;editable=1;locked=0;connectable=1;" vertex="1" parent="ryIdYR8z_rkLLB81yYg2-24">
          <mxGeometry x="25" width="30" height="30" as="geometry" />
        </mxCell>
        <mxCell id="ryIdYR8z_rkLLB81yYg2-27" value="" style="group" vertex="1" connectable="0" parent="1">
          <mxGeometry x="300" y="100" width="80" height="80" as="geometry" />
        </mxCell>
        <mxCell id="ryIdYR8z_rkLLB81yYg2-28" value="оса" style="rhombus;whiteSpace=wrap;html=1;movable=1;resizable=1;rotatable=1;deletable=1;editable=1;locked=0;connectable=1;" vertex="1" parent="ryIdYR8z_rkLLB81yYg2-27">
          <mxGeometry width="80" height="80" as="geometry" />
        </mxCell>
        <mxCell id="ryIdYR8z_rkLLB81yYg2-29" value="9" style="rhombus;whiteSpace=wrap;html=1;movable=1;resizable=1;rotatable=1;deletable=1;editable=1;locked=0;connectable=1;" vertex="1" parent="ryIdYR8z_rkLLB81yYg2-27">
          <mxGeometry x="25" width="30" height="30" as="geometry" />
        </mxCell>
        <mxCell id="ryIdYR8z_rkLLB81yYg2-30" value="" style="group" vertex="1" connectable="0" parent="1">
          <mxGeometry x="390" y="100" width="80" height="80" as="geometry" />
        </mxCell>
        <mxCell id="ryIdYR8z_rkLLB81yYg2-31" value="богомол" style="rhombus;whiteSpace=wrap;html=1;movable=1;resizable=1;rotatable=1;deletable=1;editable=1;locked=0;connectable=1;" vertex="1" parent="ryIdYR8z_rkLLB81yYg2-30">
          <mxGeometry width="80" height="80" as="geometry" />
        </mxCell>
        <mxCell id="ryIdYR8z_rkLLB81yYg2-32" value="10" style="rhombus;whiteSpace=wrap;html=1;movable=1;resizable=1;rotatable=1;deletable=1;editable=1;locked=0;connectable=1;" vertex="1" parent="ryIdYR8z_rkLLB81yYg2-30">
          <mxGeometry x="25" width="30" height="30" as="geometry" />
        </mxCell>
      </root>
    </mxGraphModel>
  </diagram>
  <diagram id="_nxK1ZPJMVX8hqCEEn-m" name="Растения">
    <mxGraphModel dx="679" dy="349" grid="1" gridSize="10" guides="1" tooltips="1" connect="1" arrows="1" fold="1" page="1" pageScale="1" pageWidth="827" pageHeight="1169" math="0" shadow="0">
      <root>
        <mxCell id="0" />
        <mxCell id="1" parent="0" />
        <mxCell id="LufGx1k-erDWd4vzFndF-3" value="" style="group" vertex="1" connectable="0" parent="1">
          <mxGeometry x="50" y="30" width="80" height="80" as="geometry" />
        </mxCell>
        <mxCell id="LufGx1k-erDWd4vzFndF-1" value="ромашка" style="ellipse;whiteSpace=wrap;html=1;aspect=fixed;" vertex="1" parent="LufGx1k-erDWd4vzFndF-3">
          <mxGeometry width="80" height="80" as="geometry" />
        </mxCell>
        <mxCell id="LufGx1k-erDWd4vzFndF-2" value="1" style="ellipse;whiteSpace=wrap;html=1;aspect=fixed;" vertex="1" parent="LufGx1k-erDWd4vzFndF-3">
          <mxGeometry x="25" width="30" height="30" as="geometry" />
        </mxCell>
        <mxCell id="LufGx1k-erDWd4vzFndF-4" value="" style="group" vertex="1" connectable="0" parent="1">
          <mxGeometry x="140" y="30" width="80" height="80" as="geometry" />
        </mxCell>
        <mxCell id="LufGx1k-erDWd4vzFndF-5" value="лютик" style="ellipse;whiteSpace=wrap;html=1;aspect=fixed;" vertex="1" parent="LufGx1k-erDWd4vzFndF-4">
          <mxGeometry width="80" height="80" as="geometry" />
        </mxCell>
        <mxCell id="LufGx1k-erDWd4vzFndF-6" value="2" style="ellipse;whiteSpace=wrap;html=1;aspect=fixed;" vertex="1" parent="LufGx1k-erDWd4vzFndF-4">
          <mxGeometry x="25" width="30" height="30" as="geometry" />
        </mxCell>
        <mxCell id="LufGx1k-erDWd4vzFndF-7" value="" style="group" vertex="1" connectable="0" parent="1">
          <mxGeometry x="230" y="30" width="80" height="80" as="geometry" />
        </mxCell>
        <mxCell id="LufGx1k-erDWd4vzFndF-8" value="клевер" style="ellipse;whiteSpace=wrap;html=1;aspect=fixed;" vertex="1" parent="LufGx1k-erDWd4vzFndF-7">
          <mxGeometry width="80" height="80" as="geometry" />
        </mxCell>
        <mxCell id="LufGx1k-erDWd4vzFndF-9" value="3" style="ellipse;whiteSpace=wrap;html=1;aspect=fixed;" vertex="1" parent="LufGx1k-erDWd4vzFndF-7">
          <mxGeometry x="25" width="30" height="30" as="geometry" />
        </mxCell>
        <mxCell id="LufGx1k-erDWd4vzFndF-10" value="" style="group" vertex="1" connectable="0" parent="1">
          <mxGeometry x="320" y="30" width="80" height="80" as="geometry" />
        </mxCell>
        <mxCell id="LufGx1k-erDWd4vzFndF-11" value="мак" style="ellipse;whiteSpace=wrap;html=1;aspect=fixed;" vertex="1" parent="LufGx1k-erDWd4vzFndF-10">
          <mxGeometry width="80" height="80" as="geometry" />
        </mxCell>
        <mxCell id="LufGx1k-erDWd4vzFndF-12" value="4" style="ellipse;whiteSpace=wrap;html=1;aspect=fixed;" vertex="1" parent="LufGx1k-erDWd4vzFndF-10">
          <mxGeometry x="25" width="30" height="30" as="geometry" />
        </mxCell>
        <mxCell id="LufGx1k-erDWd4vzFndF-13" value="" style="group" vertex="1" connectable="0" parent="1">
          <mxGeometry x="410" y="30" width="80" height="80" as="geometry" />
        </mxCell>
        <mxCell id="LufGx1k-erDWd4vzFndF-14" value="одуванчик" style="ellipse;whiteSpace=wrap;html=1;aspect=fixed;" vertex="1" parent="LufGx1k-erDWd4vzFndF-13">
          <mxGeometry width="80" height="80" as="geometry" />
        </mxCell>
        <mxCell id="LufGx1k-erDWd4vzFndF-15" value="5" style="ellipse;whiteSpace=wrap;html=1;aspect=fixed;" vertex="1" parent="LufGx1k-erDWd4vzFndF-13">
          <mxGeometry x="25" width="30" height="30" as="geometry" />
        </mxCell>
        <mxCell id="LufGx1k-erDWd4vzFndF-16" value="" style="group" vertex="1" connectable="0" parent="1">
          <mxGeometry x="50" y="120" width="80" height="80" as="geometry" />
        </mxCell>
        <mxCell id="LufGx1k-erDWd4vzFndF-17" value="тысяче-листник" style="ellipse;whiteSpace=wrap;html=1;aspect=fixed;" vertex="1" parent="LufGx1k-erDWd4vzFndF-16">
          <mxGeometry width="80" height="80" as="geometry" />
        </mxCell>
        <mxCell id="LufGx1k-erDWd4vzFndF-18" value="6" style="ellipse;whiteSpace=wrap;html=1;aspect=fixed;" vertex="1" parent="LufGx1k-erDWd4vzFndF-16">
          <mxGeometry x="25" width="30" height="30" as="geometry" />
        </mxCell>
        <mxCell id="LufGx1k-erDWd4vzFndF-19" value="" style="group" vertex="1" connectable="0" parent="1">
          <mxGeometry x="140" y="120" width="80" height="80" as="geometry" />
        </mxCell>
        <mxCell id="LufGx1k-erDWd4vzFndF-20" value="зверобой" style="ellipse;whiteSpace=wrap;html=1;aspect=fixed;" vertex="1" parent="LufGx1k-erDWd4vzFndF-19">
          <mxGeometry width="80" height="80" as="geometry" />
        </mxCell>
        <mxCell id="LufGx1k-erDWd4vzFndF-21" value="7" style="ellipse;whiteSpace=wrap;html=1;aspect=fixed;" vertex="1" parent="LufGx1k-erDWd4vzFndF-19">
          <mxGeometry x="25" width="30" height="30" as="geometry" />
        </mxCell>
        <mxCell id="LufGx1k-erDWd4vzFndF-22" value="" style="group" vertex="1" connectable="0" parent="1">
          <mxGeometry x="230" y="120" width="80" height="80" as="geometry" />
        </mxCell>
        <mxCell id="LufGx1k-erDWd4vzFndF-23" value="крапива" style="ellipse;whiteSpace=wrap;html=1;aspect=fixed;" vertex="1" parent="LufGx1k-erDWd4vzFndF-22">
          <mxGeometry width="80" height="80" as="geometry" />
        </mxCell>
        <mxCell id="LufGx1k-erDWd4vzFndF-24" value="8" style="ellipse;whiteSpace=wrap;html=1;aspect=fixed;" vertex="1" parent="LufGx1k-erDWd4vzFndF-22">
          <mxGeometry x="25" width="30" height="30" as="geometry" />
        </mxCell>
        <mxCell id="LufGx1k-erDWd4vzFndF-25" value="" style="group" vertex="1" connectable="0" parent="1">
          <mxGeometry x="320" y="120" width="80" height="80" as="geometry" />
        </mxCell>
        <mxCell id="LufGx1k-erDWd4vzFndF-26" value="мята" style="ellipse;whiteSpace=wrap;html=1;aspect=fixed;" vertex="1" parent="LufGx1k-erDWd4vzFndF-25">
          <mxGeometry width="80" height="80" as="geometry" />
        </mxCell>
        <mxCell id="LufGx1k-erDWd4vzFndF-27" value="9" style="ellipse;whiteSpace=wrap;html=1;aspect=fixed;" vertex="1" parent="LufGx1k-erDWd4vzFndF-25">
          <mxGeometry x="25" width="30" height="30" as="geometry" />
        </mxCell>
        <mxCell id="LufGx1k-erDWd4vzFndF-28" value="" style="group" vertex="1" connectable="0" parent="1">
          <mxGeometry x="410" y="120" width="80" height="80" as="geometry" />
        </mxCell>
        <mxCell id="LufGx1k-erDWd4vzFndF-29" value="иван-чай" style="ellipse;whiteSpace=wrap;html=1;aspect=fixed;" vertex="1" parent="LufGx1k-erDWd4vzFndF-28">
          <mxGeometry width="80" height="80" as="geometry" />
        </mxCell>
        <mxCell id="LufGx1k-erDWd4vzFndF-30" value="10" style="ellipse;whiteSpace=wrap;html=1;aspect=fixed;" vertex="1" parent="LufGx1k-erDWd4vzFndF-28">
          <mxGeometry x="25" width="30" height="30" as="geometry" />
        </mxCell>
      </root>
    </mxGraphModel>
  </diagram>
  <diagram id="iGvbadaEn2AEGCcJBGuu" name="Места обитания">
    <mxGraphModel dx="815" dy="418" grid="1" gridSize="10" guides="1" tooltips="1" connect="1" arrows="1" fold="1" page="1" pageScale="1" pageWidth="827" pageHeight="1169" math="0" shadow="0">
      <root>
        <mxCell id="0" />
        <mxCell id="1" parent="0" />
        <mxCell id="SVmRwi5Q0_TdOWyTNCOj-10" value="" style="group" vertex="1" connectable="0" parent="1">
          <mxGeometry x="30" y="50" width="100" height="110" as="geometry" />
        </mxCell>
        <mxCell id="SVmRwi5Q0_TdOWyTNCOj-1" value="лес" style="whiteSpace=wrap;html=1;aspect=fixed;" vertex="1" parent="SVmRwi5Q0_TdOWyTNCOj-10">
          <mxGeometry x="10" y="30" width="80" height="80" as="geometry" />
        </mxCell>
        <mxCell id="SVmRwi5Q0_TdOWyTNCOj-2" value="" style="verticalLabelPosition=bottom;verticalAlign=top;html=1;shape=mxgraph.basic.cone2;dx=0.5;dy=0.9;" vertex="1" parent="SVmRwi5Q0_TdOWyTNCOj-10">
          <mxGeometry width="100" height="40" as="geometry" />
        </mxCell>
        <mxCell id="SVmRwi5Q0_TdOWyTNCOj-39" value="1" style="ellipse;whiteSpace=wrap;html=1;aspect=fixed;" vertex="1" parent="SVmRwi5Q0_TdOWyTNCOj-10">
          <mxGeometry x="35" y="10" width="30" height="30" as="geometry" />
        </mxCell>
        <mxCell id="SVmRwi5Q0_TdOWyTNCOj-40" value="" style="group" vertex="1" connectable="0" parent="1">
          <mxGeometry x="140" y="50" width="100" height="110" as="geometry" />
        </mxCell>
        <mxCell id="SVmRwi5Q0_TdOWyTNCOj-41" value="луг" style="whiteSpace=wrap;html=1;aspect=fixed;" vertex="1" parent="SVmRwi5Q0_TdOWyTNCOj-40">
          <mxGeometry x="10" y="30" width="80" height="80" as="geometry" />
        </mxCell>
        <mxCell id="SVmRwi5Q0_TdOWyTNCOj-42" value="" style="verticalLabelPosition=bottom;verticalAlign=top;html=1;shape=mxgraph.basic.cone2;dx=0.5;dy=0.9;" vertex="1" parent="SVmRwi5Q0_TdOWyTNCOj-40">
          <mxGeometry width="100" height="40" as="geometry" />
        </mxCell>
        <mxCell id="SVmRwi5Q0_TdOWyTNCOj-43" value="2" style="ellipse;whiteSpace=wrap;html=1;aspect=fixed;" vertex="1" parent="SVmRwi5Q0_TdOWyTNCOj-40">
          <mxGeometry x="35" y="10" width="30" height="30" as="geometry" />
        </mxCell>
        <mxCell id="SVmRwi5Q0_TdOWyTNCOj-44" value="" style="group" vertex="1" connectable="0" parent="1">
          <mxGeometry x="250" y="50" width="100" height="110" as="geometry" />
        </mxCell>
        <mxCell id="SVmRwi5Q0_TdOWyTNCOj-45" value="болото" style="whiteSpace=wrap;html=1;aspect=fixed;" vertex="1" parent="SVmRwi5Q0_TdOWyTNCOj-44">
          <mxGeometry x="10" y="30" width="80" height="80" as="geometry" />
        </mxCell>
        <mxCell id="SVmRwi5Q0_TdOWyTNCOj-46" value="" style="verticalLabelPosition=bottom;verticalAlign=top;html=1;shape=mxgraph.basic.cone2;dx=0.5;dy=0.9;" vertex="1" parent="SVmRwi5Q0_TdOWyTNCOj-44">
          <mxGeometry width="100" height="40" as="geometry" />
        </mxCell>
        <mxCell id="SVmRwi5Q0_TdOWyTNCOj-47" value="3" style="ellipse;whiteSpace=wrap;html=1;aspect=fixed;" vertex="1" parent="SVmRwi5Q0_TdOWyTNCOj-44">
          <mxGeometry x="35" y="10" width="30" height="30" as="geometry" />
        </mxCell>
        <mxCell id="SVmRwi5Q0_TdOWyTNCOj-48" value="" style="group" vertex="1" connectable="0" parent="1">
          <mxGeometry x="360" y="50" width="100" height="110" as="geometry" />
        </mxCell>
        <mxCell id="SVmRwi5Q0_TdOWyTNCOj-49" value="песчаная дюна" style="whiteSpace=wrap;html=1;aspect=fixed;" vertex="1" parent="SVmRwi5Q0_TdOWyTNCOj-48">
          <mxGeometry x="10" y="30" width="80" height="80" as="geometry" />
        </mxCell>
        <mxCell id="SVmRwi5Q0_TdOWyTNCOj-50" value="" style="verticalLabelPosition=bottom;verticalAlign=top;html=1;shape=mxgraph.basic.cone2;dx=0.5;dy=0.9;" vertex="1" parent="SVmRwi5Q0_TdOWyTNCOj-48">
          <mxGeometry width="100" height="40" as="geometry" />
        </mxCell>
        <mxCell id="SVmRwi5Q0_TdOWyTNCOj-51" value="4" style="ellipse;whiteSpace=wrap;html=1;aspect=fixed;" vertex="1" parent="SVmRwi5Q0_TdOWyTNCOj-48">
          <mxGeometry x="35" y="10" width="30" height="30" as="geometry" />
        </mxCell>
        <mxCell id="SVmRwi5Q0_TdOWyTNCOj-52" value="" style="group" vertex="1" connectable="0" parent="1">
          <mxGeometry x="470" y="50" width="100" height="110" as="geometry" />
        </mxCell>
        <mxCell id="SVmRwi5Q0_TdOWyTNCOj-53" value="поляна" style="whiteSpace=wrap;html=1;aspect=fixed;" vertex="1" parent="SVmRwi5Q0_TdOWyTNCOj-52">
          <mxGeometry x="10" y="30" width="80" height="80" as="geometry" />
        </mxCell>
        <mxCell id="SVmRwi5Q0_TdOWyTNCOj-54" value="" style="verticalLabelPosition=bottom;verticalAlign=top;html=1;shape=mxgraph.basic.cone2;dx=0.5;dy=0.9;" vertex="1" parent="SVmRwi5Q0_TdOWyTNCOj-52">
          <mxGeometry width="100" height="40" as="geometry" />
        </mxCell>
        <mxCell id="SVmRwi5Q0_TdOWyTNCOj-55" value="5" style="ellipse;whiteSpace=wrap;html=1;aspect=fixed;" vertex="1" parent="SVmRwi5Q0_TdOWyTNCOj-52">
          <mxGeometry x="35" y="10" width="30" height="30" as="geometry" />
        </mxCell>
        <mxCell id="SVmRwi5Q0_TdOWyTNCOj-60" value="" style="group" vertex="1" connectable="0" parent="1">
          <mxGeometry x="30" y="170" width="100" height="110" as="geometry" />
        </mxCell>
        <mxCell id="SVmRwi5Q0_TdOWyTNCOj-61" value="горная зона" style="whiteSpace=wrap;html=1;aspect=fixed;" vertex="1" parent="SVmRwi5Q0_TdOWyTNCOj-60">
          <mxGeometry x="10" y="30" width="80" height="80" as="geometry" />
        </mxCell>
        <mxCell id="SVmRwi5Q0_TdOWyTNCOj-62" value="" style="verticalLabelPosition=bottom;verticalAlign=top;html=1;shape=mxgraph.basic.cone2;dx=0.5;dy=0.9;" vertex="1" parent="SVmRwi5Q0_TdOWyTNCOj-60">
          <mxGeometry width="100" height="40" as="geometry" />
        </mxCell>
        <mxCell id="SVmRwi5Q0_TdOWyTNCOj-63" value="6" style="ellipse;whiteSpace=wrap;html=1;aspect=fixed;" vertex="1" parent="SVmRwi5Q0_TdOWyTNCOj-60">
          <mxGeometry x="35" y="10" width="30" height="30" as="geometry" />
        </mxCell>
        <mxCell id="SVmRwi5Q0_TdOWyTNCOj-64" value="" style="group" vertex="1" connectable="0" parent="1">
          <mxGeometry x="140" y="170" width="100" height="110" as="geometry" />
        </mxCell>
        <mxCell id="SVmRwi5Q0_TdOWyTNCOj-65" value="овраг" style="whiteSpace=wrap;html=1;aspect=fixed;" vertex="1" parent="SVmRwi5Q0_TdOWyTNCOj-64">
          <mxGeometry x="10" y="30" width="80" height="80" as="geometry" />
        </mxCell>
        <mxCell id="SVmRwi5Q0_TdOWyTNCOj-66" value="" style="verticalLabelPosition=bottom;verticalAlign=top;html=1;shape=mxgraph.basic.cone2;dx=0.5;dy=0.9;" vertex="1" parent="SVmRwi5Q0_TdOWyTNCOj-64">
          <mxGeometry width="100" height="40" as="geometry" />
        </mxCell>
        <mxCell id="SVmRwi5Q0_TdOWyTNCOj-67" value="7" style="ellipse;whiteSpace=wrap;html=1;aspect=fixed;" vertex="1" parent="SVmRwi5Q0_TdOWyTNCOj-64">
          <mxGeometry x="35" y="10" width="30" height="30" as="geometry" />
        </mxCell>
        <mxCell id="SVmRwi5Q0_TdOWyTNCOj-68" value="" style="group" vertex="1" connectable="0" parent="1">
          <mxGeometry x="250" y="170" width="100" height="110" as="geometry" />
        </mxCell>
        <mxCell id="SVmRwi5Q0_TdOWyTNCOj-69" value="сад" style="whiteSpace=wrap;html=1;aspect=fixed;" vertex="1" parent="SVmRwi5Q0_TdOWyTNCOj-68">
          <mxGeometry x="10" y="30" width="80" height="80" as="geometry" />
        </mxCell>
        <mxCell id="SVmRwi5Q0_TdOWyTNCOj-70" value="" style="verticalLabelPosition=bottom;verticalAlign=top;html=1;shape=mxgraph.basic.cone2;dx=0.5;dy=0.9;" vertex="1" parent="SVmRwi5Q0_TdOWyTNCOj-68">
          <mxGeometry width="100" height="40" as="geometry" />
        </mxCell>
        <mxCell id="SVmRwi5Q0_TdOWyTNCOj-71" value="8" style="ellipse;whiteSpace=wrap;html=1;aspect=fixed;" vertex="1" parent="SVmRwi5Q0_TdOWyTNCOj-68">
          <mxGeometry x="35" y="10" width="30" height="30" as="geometry" />
        </mxCell>
        <mxCell id="SVmRwi5Q0_TdOWyTNCOj-72" value="" style="group" vertex="1" connectable="0" parent="1">
          <mxGeometry x="360" y="170" width="100" height="110" as="geometry" />
        </mxCell>
        <mxCell id="SVmRwi5Q0_TdOWyTNCOj-73" value="лесная опушка" style="whiteSpace=wrap;html=1;aspect=fixed;" vertex="1" parent="SVmRwi5Q0_TdOWyTNCOj-72">
          <mxGeometry x="10" y="30" width="80" height="80" as="geometry" />
        </mxCell>
        <mxCell id="SVmRwi5Q0_TdOWyTNCOj-74" value="" style="verticalLabelPosition=bottom;verticalAlign=top;html=1;shape=mxgraph.basic.cone2;dx=0.5;dy=0.9;" vertex="1" parent="SVmRwi5Q0_TdOWyTNCOj-72">
          <mxGeometry width="100" height="40" as="geometry" />
        </mxCell>
        <mxCell id="SVmRwi5Q0_TdOWyTNCOj-75" value="9" style="ellipse;whiteSpace=wrap;html=1;aspect=fixed;" vertex="1" parent="SVmRwi5Q0_TdOWyTNCOj-72">
          <mxGeometry x="35" y="10" width="30" height="30" as="geometry" />
        </mxCell>
        <mxCell id="SVmRwi5Q0_TdOWyTNCOj-76" value="" style="group" vertex="1" connectable="0" parent="1">
          <mxGeometry x="470" y="170" width="100" height="110" as="geometry" />
        </mxCell>
        <mxCell id="SVmRwi5Q0_TdOWyTNCOj-77" value="речная пойма" style="whiteSpace=wrap;html=1;aspect=fixed;" vertex="1" parent="SVmRwi5Q0_TdOWyTNCOj-76">
          <mxGeometry x="10" y="30" width="80" height="80" as="geometry" />
        </mxCell>
        <mxCell id="SVmRwi5Q0_TdOWyTNCOj-78" value="" style="verticalLabelPosition=bottom;verticalAlign=top;html=1;shape=mxgraph.basic.cone2;dx=0.5;dy=0.9;" vertex="1" parent="SVmRwi5Q0_TdOWyTNCOj-76">
          <mxGeometry width="100" height="40" as="geometry" />
        </mxCell>
        <mxCell id="SVmRwi5Q0_TdOWyTNCOj-79" value="10" style="ellipse;whiteSpace=wrap;html=1;aspect=fixed;" vertex="1" parent="SVmRwi5Q0_TdOWyTNCOj-76">
          <mxGeometry x="35" y="10" width="30" height="30" as="geometry" />
        </mxCell>
      </root>
    </mxGraphModel>
  </diagram>
  <diagram id="ZNTV4WXdV55Zu_Ql3fhX" name="Общие взаимоотношения">
    <mxGraphModel dx="1426" dy="732" grid="1" gridSize="10" guides="1" tooltips="1" connect="1" arrows="1" fold="1" page="1" pageScale="1" pageWidth="827" pageHeight="1169" math="0" shadow="0">
      <root>
        <mxCell id="0" />
        <mxCell id="1" parent="0" />
        <mxCell id="o_oYlONm8V89n8yl7Vkh-1" value="" style="group" vertex="1" connectable="0" parent="1">
          <mxGeometry x="170" y="350" width="100" height="110" as="geometry" />
        </mxCell>
        <mxCell id="o_oYlONm8V89n8yl7Vkh-2" value="луг" style="whiteSpace=wrap;html=1;aspect=fixed;" vertex="1" parent="o_oYlONm8V89n8yl7Vkh-1">
          <mxGeometry x="10" y="30" width="80" height="80" as="geometry" />
        </mxCell>
        <mxCell id="o_oYlONm8V89n8yl7Vkh-3" value="" style="verticalLabelPosition=bottom;verticalAlign=top;html=1;shape=mxgraph.basic.cone2;dx=0.5;dy=0.9;" vertex="1" parent="o_oYlONm8V89n8yl7Vkh-1">
          <mxGeometry width="100" height="40" as="geometry" />
        </mxCell>
        <mxCell id="o_oYlONm8V89n8yl7Vkh-4" value="2" style="ellipse;whiteSpace=wrap;html=1;aspect=fixed;" vertex="1" parent="o_oYlONm8V89n8yl7Vkh-1">
          <mxGeometry x="35" y="10" width="30" height="30" as="geometry" />
        </mxCell>
        <mxCell id="r9sPHa4laeAm-ILrQgFD-1" value="" style="group" vertex="1" connectable="0" parent="1">
          <mxGeometry x="520" y="200" width="100" height="110" as="geometry" />
        </mxCell>
        <mxCell id="r9sPHa4laeAm-ILrQgFD-2" value="лесная опушка" style="whiteSpace=wrap;html=1;aspect=fixed;" vertex="1" parent="r9sPHa4laeAm-ILrQgFD-1">
          <mxGeometry x="10" y="30" width="80" height="80" as="geometry" />
        </mxCell>
        <mxCell id="r9sPHa4laeAm-ILrQgFD-3" value="" style="verticalLabelPosition=bottom;verticalAlign=top;html=1;shape=mxgraph.basic.cone2;dx=0.5;dy=0.9;" vertex="1" parent="r9sPHa4laeAm-ILrQgFD-1">
          <mxGeometry width="100" height="40" as="geometry" />
        </mxCell>
        <mxCell id="r9sPHa4laeAm-ILrQgFD-4" value="9" style="ellipse;whiteSpace=wrap;html=1;aspect=fixed;" vertex="1" parent="r9sPHa4laeAm-ILrQgFD-1">
          <mxGeometry x="35" y="10" width="30" height="30" as="geometry" />
        </mxCell>
        <mxCell id="0WL1ZPKLoCDRLz1qUtv3-1" value="" style="group" vertex="1" connectable="0" parent="1">
          <mxGeometry x="350" y="660" width="100" height="110" as="geometry" />
        </mxCell>
        <mxCell id="0WL1ZPKLoCDRLz1qUtv3-2" value="сад" style="whiteSpace=wrap;html=1;aspect=fixed;" vertex="1" parent="0WL1ZPKLoCDRLz1qUtv3-1">
          <mxGeometry x="10" y="30" width="80" height="80" as="geometry" />
        </mxCell>
        <mxCell id="0WL1ZPKLoCDRLz1qUtv3-3" value="" style="verticalLabelPosition=bottom;verticalAlign=top;html=1;shape=mxgraph.basic.cone2;dx=0.5;dy=0.9;" vertex="1" parent="0WL1ZPKLoCDRLz1qUtv3-1">
          <mxGeometry width="100" height="40" as="geometry" />
        </mxCell>
        <mxCell id="0WL1ZPKLoCDRLz1qUtv3-4" value="8" style="ellipse;whiteSpace=wrap;html=1;aspect=fixed;" vertex="1" parent="0WL1ZPKLoCDRLz1qUtv3-1">
          <mxGeometry x="35" y="10" width="30" height="30" as="geometry" />
        </mxCell>
        <mxCell id="o9v0obmWDyjO_nG0kqYW-1" value="" style="group" vertex="1" connectable="0" parent="1">
          <mxGeometry x="560" y="810" width="100" height="110" as="geometry" />
        </mxCell>
        <mxCell id="o9v0obmWDyjO_nG0kqYW-2" value="лес" style="whiteSpace=wrap;html=1;aspect=fixed;" vertex="1" parent="o9v0obmWDyjO_nG0kqYW-1">
          <mxGeometry x="10" y="30" width="80" height="80" as="geometry" />
        </mxCell>
        <mxCell id="o9v0obmWDyjO_nG0kqYW-3" value="" style="verticalLabelPosition=bottom;verticalAlign=top;html=1;shape=mxgraph.basic.cone2;dx=0.5;dy=0.9;" vertex="1" parent="o9v0obmWDyjO_nG0kqYW-1">
          <mxGeometry width="100" height="40" as="geometry" />
        </mxCell>
        <mxCell id="o9v0obmWDyjO_nG0kqYW-4" value="1" style="ellipse;whiteSpace=wrap;html=1;aspect=fixed;" vertex="1" parent="o9v0obmWDyjO_nG0kqYW-1">
          <mxGeometry x="35" y="10" width="30" height="30" as="geometry" />
        </mxCell>
        <mxCell id="ZrQu1QoXPwl-mA0-QnF3-1" value="" style="group" vertex="1" connectable="0" parent="1">
          <mxGeometry x="680" y="490" width="100" height="110" as="geometry" />
        </mxCell>
        <mxCell id="ZrQu1QoXPwl-mA0-QnF3-2" value="поляна" style="whiteSpace=wrap;html=1;aspect=fixed;" vertex="1" parent="ZrQu1QoXPwl-mA0-QnF3-1">
          <mxGeometry x="10" y="30" width="80" height="80" as="geometry" />
        </mxCell>
        <mxCell id="ZrQu1QoXPwl-mA0-QnF3-3" value="" style="verticalLabelPosition=bottom;verticalAlign=top;html=1;shape=mxgraph.basic.cone2;dx=0.5;dy=0.9;" vertex="1" parent="ZrQu1QoXPwl-mA0-QnF3-1">
          <mxGeometry width="100" height="40" as="geometry" />
        </mxCell>
        <mxCell id="ZrQu1QoXPwl-mA0-QnF3-4" value="5" style="ellipse;whiteSpace=wrap;html=1;aspect=fixed;" vertex="1" parent="ZrQu1QoXPwl-mA0-QnF3-1">
          <mxGeometry x="35" y="10" width="30" height="30" as="geometry" />
        </mxCell>
        <mxCell id="4FtqKsVRrSVho0qqQlta-1" value="" style="group" vertex="1" connectable="0" parent="1">
          <mxGeometry x="80" y="730" width="80" height="80" as="geometry" />
        </mxCell>
        <mxCell id="4FtqKsVRrSVho0qqQlta-2" value="оса" style="rhombus;whiteSpace=wrap;html=1;movable=1;resizable=1;rotatable=1;deletable=1;editable=1;locked=0;connectable=1;" vertex="1" parent="4FtqKsVRrSVho0qqQlta-1">
          <mxGeometry width="80" height="80" as="geometry" />
        </mxCell>
        <mxCell id="4FtqKsVRrSVho0qqQlta-3" value="9" style="rhombus;whiteSpace=wrap;html=1;movable=1;resizable=1;rotatable=1;deletable=1;editable=1;locked=0;connectable=1;" vertex="1" parent="4FtqKsVRrSVho0qqQlta-1">
          <mxGeometry x="25" width="30" height="30" as="geometry" />
        </mxCell>
        <mxCell id="4FtqKsVRrSVho0qqQlta-4" style="edgeStyle=orthogonalEdgeStyle;rounded=0;orthogonalLoop=1;jettySize=auto;html=1;entryX=0;entryY=0.25;entryDx=0;entryDy=0;" edge="1" parent="1" source="4FtqKsVRrSVho0qqQlta-2" target="0WL1ZPKLoCDRLz1qUtv3-2">
          <mxGeometry relative="1" as="geometry" />
        </mxCell>
        <mxCell id="4FtqKsVRrSVho0qqQlta-5" value="живет в" style="edgeLabel;html=1;align=center;verticalAlign=middle;resizable=0;points=[];" vertex="1" connectable="0" parent="4FtqKsVRrSVho0qqQlta-4">
          <mxGeometry x="-0.4196" y="-3" relative="1" as="geometry">
            <mxPoint as="offset" />
          </mxGeometry>
        </mxCell>
        <mxCell id="9RKWij0ltd5R-itLxx2H-1" value="" style="group" vertex="1" connectable="0" parent="1">
          <mxGeometry x="80" y="520" width="80" height="80" as="geometry" />
        </mxCell>
        <mxCell id="9RKWij0ltd5R-itLxx2H-2" value="стрекоза" style="rhombus;whiteSpace=wrap;html=1;movable=1;resizable=1;rotatable=1;deletable=1;editable=1;locked=0;connectable=1;" vertex="1" parent="9RKWij0ltd5R-itLxx2H-1">
          <mxGeometry width="80" height="80" as="geometry" />
        </mxCell>
        <mxCell id="9RKWij0ltd5R-itLxx2H-3" value="8" style="rhombus;whiteSpace=wrap;html=1;movable=1;resizable=1;rotatable=1;deletable=1;editable=1;locked=0;connectable=1;" vertex="1" parent="9RKWij0ltd5R-itLxx2H-1">
          <mxGeometry x="25" width="30" height="30" as="geometry" />
        </mxCell>
        <mxCell id="9RKWij0ltd5R-itLxx2H-4" style="edgeStyle=orthogonalEdgeStyle;rounded=0;orthogonalLoop=1;jettySize=auto;html=1;entryX=0.5;entryY=0;entryDx=0;entryDy=0;" edge="1" parent="1" source="9RKWij0ltd5R-itLxx2H-2" target="4FtqKsVRrSVho0qqQlta-3">
          <mxGeometry relative="1" as="geometry" />
        </mxCell>
        <mxCell id="9RKWij0ltd5R-itLxx2H-5" value="поедает" style="edgeLabel;html=1;align=center;verticalAlign=middle;resizable=0;points=[];" vertex="1" connectable="0" parent="9RKWij0ltd5R-itLxx2H-4">
          <mxGeometry x="-0.3111" y="1" relative="1" as="geometry">
            <mxPoint as="offset" />
          </mxGeometry>
        </mxCell>
        <mxCell id="eURhd-FHl6DXdvEiAtk_-1" value="" style="group" vertex="1" connectable="0" parent="1">
          <mxGeometry x="290" y="520" width="80" height="80" as="geometry" />
        </mxCell>
        <mxCell id="eURhd-FHl6DXdvEiAtk_-2" value="шмель" style="rhombus;whiteSpace=wrap;html=1;movable=1;resizable=1;rotatable=1;deletable=1;editable=1;locked=0;connectable=1;" vertex="1" parent="eURhd-FHl6DXdvEiAtk_-1">
          <mxGeometry width="80" height="80" as="geometry" />
        </mxCell>
        <mxCell id="eURhd-FHl6DXdvEiAtk_-3" value="2" style="rhombus;whiteSpace=wrap;html=1;movable=1;resizable=1;rotatable=1;deletable=1;editable=1;locked=0;connectable=1;" vertex="1" parent="eURhd-FHl6DXdvEiAtk_-1">
          <mxGeometry x="25" width="30" height="30" as="geometry" />
        </mxCell>
        <mxCell id="eURhd-FHl6DXdvEiAtk_-4" style="edgeStyle=orthogonalEdgeStyle;rounded=0;orthogonalLoop=1;jettySize=auto;html=1;entryX=0;entryY=0.5;entryDx=0;entryDy=0;" edge="1" parent="1" source="9RKWij0ltd5R-itLxx2H-2" target="eURhd-FHl6DXdvEiAtk_-2">
          <mxGeometry relative="1" as="geometry" />
        </mxCell>
        <mxCell id="eURhd-FHl6DXdvEiAtk_-5" value="поедает" style="edgeLabel;html=1;align=center;verticalAlign=middle;resizable=0;points=[];" vertex="1" connectable="0" parent="eURhd-FHl6DXdvEiAtk_-4">
          <mxGeometry y="-3" relative="1" as="geometry">
            <mxPoint as="offset" />
          </mxGeometry>
        </mxCell>
        <mxCell id="rQfoyL5-mEFIAaFwqeZl-1" value="" style="group" vertex="1" connectable="0" parent="1">
          <mxGeometry x="360" y="840" width="80" height="80" as="geometry" />
        </mxCell>
        <mxCell id="rQfoyL5-mEFIAaFwqeZl-2" value="крапива" style="ellipse;whiteSpace=wrap;html=1;aspect=fixed;" vertex="1" parent="rQfoyL5-mEFIAaFwqeZl-1">
          <mxGeometry width="80" height="80" as="geometry" />
        </mxCell>
        <mxCell id="rQfoyL5-mEFIAaFwqeZl-3" value="8" style="ellipse;whiteSpace=wrap;html=1;aspect=fixed;" vertex="1" parent="rQfoyL5-mEFIAaFwqeZl-1">
          <mxGeometry x="25" width="30" height="30" as="geometry" />
        </mxCell>
        <mxCell id="rQfoyL5-mEFIAaFwqeZl-4" style="edgeStyle=orthogonalEdgeStyle;rounded=0;orthogonalLoop=1;jettySize=auto;html=1;entryX=0;entryY=0.5;entryDx=0;entryDy=0;" edge="1" parent="1" source="4FtqKsVRrSVho0qqQlta-2" target="rQfoyL5-mEFIAaFwqeZl-2">
          <mxGeometry relative="1" as="geometry" />
        </mxCell>
        <mxCell id="rQfoyL5-mEFIAaFwqeZl-5" value="опыляет" style="edgeLabel;html=1;align=center;verticalAlign=middle;resizable=0;points=[];" vertex="1" connectable="0" parent="rQfoyL5-mEFIAaFwqeZl-4">
          <mxGeometry x="0.2933" relative="1" as="geometry">
            <mxPoint as="offset" />
          </mxGeometry>
        </mxCell>
        <mxCell id="rQfoyL5-mEFIAaFwqeZl-6" style="edgeStyle=orthogonalEdgeStyle;rounded=0;orthogonalLoop=1;jettySize=auto;html=1;entryX=0;entryY=0.5;entryDx=0;entryDy=0;" edge="1" parent="1" source="rQfoyL5-mEFIAaFwqeZl-2" target="o9v0obmWDyjO_nG0kqYW-2">
          <mxGeometry relative="1" as="geometry" />
        </mxCell>
        <mxCell id="rQfoyL5-mEFIAaFwqeZl-7" value="растет в" style="edgeLabel;html=1;align=center;verticalAlign=middle;resizable=0;points=[];" vertex="1" connectable="0" parent="rQfoyL5-mEFIAaFwqeZl-6">
          <mxGeometry x="-0.4087" y="-2" relative="1" as="geometry">
            <mxPoint as="offset" />
          </mxGeometry>
        </mxCell>
        <mxCell id="ewsk70c2cCygB1QGcQjw-1" value="" style="group" vertex="1" connectable="0" parent="1">
          <mxGeometry x="570" y="660" width="80" height="80" as="geometry" />
        </mxCell>
        <mxCell id="ewsk70c2cCygB1QGcQjw-2" value="жук-оленёк" style="rhombus;whiteSpace=wrap;html=1;movable=1;resizable=1;rotatable=1;deletable=1;editable=1;locked=0;connectable=1;" vertex="1" parent="ewsk70c2cCygB1QGcQjw-1">
          <mxGeometry width="80" height="80" as="geometry" />
        </mxCell>
        <mxCell id="ewsk70c2cCygB1QGcQjw-3" value="3" style="rhombus;whiteSpace=wrap;html=1;movable=1;resizable=1;rotatable=1;deletable=1;editable=1;locked=0;connectable=1;" vertex="1" parent="ewsk70c2cCygB1QGcQjw-1">
          <mxGeometry x="25" width="30" height="30" as="geometry" />
        </mxCell>
        <mxCell id="ewsk70c2cCygB1QGcQjw-4" style="edgeStyle=orthogonalEdgeStyle;rounded=0;orthogonalLoop=1;jettySize=auto;html=1;entryX=0;entryY=0;entryDx=50;entryDy=0;entryPerimeter=0;" edge="1" parent="1" source="ewsk70c2cCygB1QGcQjw-2" target="o9v0obmWDyjO_nG0kqYW-3">
          <mxGeometry relative="1" as="geometry" />
        </mxCell>
        <mxCell id="ewsk70c2cCygB1QGcQjw-5" value="живет в" style="edgeLabel;html=1;align=center;verticalAlign=middle;resizable=0;points=[];" vertex="1" connectable="0" parent="ewsk70c2cCygB1QGcQjw-4">
          <mxGeometry x="-0.0857" y="-3" relative="1" as="geometry">
            <mxPoint as="offset" />
          </mxGeometry>
        </mxCell>
        <mxCell id="-UHRgLQaUfLU4NMeRHqR-1" value="" style="group" vertex="1" connectable="0" parent="1">
          <mxGeometry x="470" y="520" width="80" height="80" as="geometry" />
        </mxCell>
        <mxCell id="-UHRgLQaUfLU4NMeRHqR-2" value="мак" style="ellipse;whiteSpace=wrap;html=1;aspect=fixed;" vertex="1" parent="-UHRgLQaUfLU4NMeRHqR-1">
          <mxGeometry width="80" height="80" as="geometry" />
        </mxCell>
        <mxCell id="-UHRgLQaUfLU4NMeRHqR-3" value="4" style="ellipse;whiteSpace=wrap;html=1;aspect=fixed;" vertex="1" parent="-UHRgLQaUfLU4NMeRHqR-1">
          <mxGeometry x="25" width="30" height="30" as="geometry" />
        </mxCell>
        <mxCell id="-UHRgLQaUfLU4NMeRHqR-4" style="edgeStyle=orthogonalEdgeStyle;rounded=0;orthogonalLoop=1;jettySize=auto;html=1;entryX=0;entryY=0.5;entryDx=0;entryDy=0;" edge="1" parent="1" source="eURhd-FHl6DXdvEiAtk_-2" target="-UHRgLQaUfLU4NMeRHqR-2">
          <mxGeometry relative="1" as="geometry" />
        </mxCell>
        <mxCell id="-UHRgLQaUfLU4NMeRHqR-5" value="опыляет" style="edgeLabel;html=1;align=center;verticalAlign=middle;resizable=0;points=[];" vertex="1" connectable="0" parent="-UHRgLQaUfLU4NMeRHqR-4">
          <mxGeometry x="-0.175" relative="1" as="geometry">
            <mxPoint x="-3" y="10" as="offset" />
          </mxGeometry>
        </mxCell>
        <mxCell id="-UHRgLQaUfLU4NMeRHqR-6" style="edgeStyle=orthogonalEdgeStyle;rounded=0;orthogonalLoop=1;jettySize=auto;html=1;entryX=0;entryY=0.5;entryDx=0;entryDy=0;" edge="1" parent="1" source="-UHRgLQaUfLU4NMeRHqR-2" target="ZrQu1QoXPwl-mA0-QnF3-2">
          <mxGeometry relative="1" as="geometry" />
        </mxCell>
        <mxCell id="-UHRgLQaUfLU4NMeRHqR-7" value="растет на" style="edgeLabel;html=1;align=center;verticalAlign=middle;resizable=0;points=[];" vertex="1" connectable="0" parent="-UHRgLQaUfLU4NMeRHqR-6">
          <mxGeometry x="0.2" y="2" relative="1" as="geometry">
            <mxPoint x="-13" y="-8" as="offset" />
          </mxGeometry>
        </mxCell>
        <mxCell id="N4AhGCKWFgw3IOgrChXM-1" value="" style="group" vertex="1" connectable="0" parent="1">
          <mxGeometry x="690" y="360" width="80" height="80" as="geometry" />
        </mxCell>
        <mxCell id="N4AhGCKWFgw3IOgrChXM-2" value="сарана" style="rhombus;whiteSpace=wrap;html=1;movable=1;resizable=1;rotatable=1;deletable=1;editable=1;locked=0;connectable=1;" vertex="1" parent="N4AhGCKWFgw3IOgrChXM-1">
          <mxGeometry width="80" height="80" as="geometry" />
        </mxCell>
        <mxCell id="N4AhGCKWFgw3IOgrChXM-3" value="6" style="rhombus;whiteSpace=wrap;html=1;movable=1;resizable=1;rotatable=1;deletable=1;editable=1;locked=0;connectable=1;" vertex="1" parent="N4AhGCKWFgw3IOgrChXM-1">
          <mxGeometry x="25" width="30" height="30" as="geometry" />
        </mxCell>
        <mxCell id="N4AhGCKWFgw3IOgrChXM-4" style="edgeStyle=orthogonalEdgeStyle;rounded=0;orthogonalLoop=1;jettySize=auto;html=1;entryX=0;entryY=0;entryDx=50;entryDy=0;entryPerimeter=0;" edge="1" parent="1" source="N4AhGCKWFgw3IOgrChXM-2" target="ZrQu1QoXPwl-mA0-QnF3-3">
          <mxGeometry relative="1" as="geometry" />
        </mxCell>
        <mxCell id="N4AhGCKWFgw3IOgrChXM-5" value="живет на" style="edgeLabel;html=1;align=center;verticalAlign=middle;resizable=0;points=[];" vertex="1" connectable="0" parent="N4AhGCKWFgw3IOgrChXM-4">
          <mxGeometry x="-0.2" relative="1" as="geometry">
            <mxPoint as="offset" />
          </mxGeometry>
        </mxCell>
        <mxCell id="Qii_kwJFGZZegXUPpGpY-1" value="" style="group" vertex="1" connectable="0" parent="1">
          <mxGeometry x="690" y="230" width="80" height="80" as="geometry" />
        </mxCell>
        <mxCell id="Qii_kwJFGZZegXUPpGpY-2" value="богомол" style="rhombus;whiteSpace=wrap;html=1;movable=1;resizable=1;rotatable=1;deletable=1;editable=1;locked=0;connectable=1;" vertex="1" parent="Qii_kwJFGZZegXUPpGpY-1">
          <mxGeometry width="80" height="80" as="geometry" />
        </mxCell>
        <mxCell id="Qii_kwJFGZZegXUPpGpY-3" value="10" style="rhombus;whiteSpace=wrap;html=1;movable=1;resizable=1;rotatable=1;deletable=1;editable=1;locked=0;connectable=1;" vertex="1" parent="Qii_kwJFGZZegXUPpGpY-1">
          <mxGeometry x="25" width="30" height="30" as="geometry" />
        </mxCell>
        <mxCell id="Qii_kwJFGZZegXUPpGpY-4" style="edgeStyle=orthogonalEdgeStyle;rounded=0;orthogonalLoop=1;jettySize=auto;html=1;entryX=0.5;entryY=0;entryDx=0;entryDy=0;" edge="1" parent="1" source="Qii_kwJFGZZegXUPpGpY-2" target="N4AhGCKWFgw3IOgrChXM-3">
          <mxGeometry relative="1" as="geometry" />
        </mxCell>
        <mxCell id="Qii_kwJFGZZegXUPpGpY-5" value="поедает" style="edgeLabel;html=1;align=center;verticalAlign=middle;resizable=0;points=[];" vertex="1" connectable="0" parent="Qii_kwJFGZZegXUPpGpY-4">
          <mxGeometry x="-0.24" y="1" relative="1" as="geometry">
            <mxPoint as="offset" />
          </mxGeometry>
        </mxCell>
        <mxCell id="Qii_kwJFGZZegXUPpGpY-7" style="edgeStyle=orthogonalEdgeStyle;rounded=0;orthogonalLoop=1;jettySize=auto;html=1;entryX=1;entryY=0.5;entryDx=0;entryDy=0;" edge="1" parent="1" source="Qii_kwJFGZZegXUPpGpY-2" target="r9sPHa4laeAm-ILrQgFD-2">
          <mxGeometry relative="1" as="geometry" />
        </mxCell>
        <mxCell id="Qii_kwJFGZZegXUPpGpY-8" value="живет на" style="edgeLabel;html=1;align=center;verticalAlign=middle;resizable=0;points=[];" vertex="1" connectable="0" parent="Qii_kwJFGZZegXUPpGpY-7">
          <mxGeometry relative="1" as="geometry">
            <mxPoint x="10" y="-10" as="offset" />
          </mxGeometry>
        </mxCell>
        <mxCell id="Eo5Rp94hcjdGjl1MHIDB-1" value="" style="group" vertex="1" connectable="0" parent="1">
          <mxGeometry x="690" y="100" width="80" height="80" as="geometry" />
        </mxCell>
        <mxCell id="Eo5Rp94hcjdGjl1MHIDB-2" value="муравей" style="rhombus;whiteSpace=wrap;html=1;movable=1;resizable=1;rotatable=1;deletable=1;editable=1;locked=0;connectable=1;" vertex="1" parent="Eo5Rp94hcjdGjl1MHIDB-1">
          <mxGeometry width="80" height="80" as="geometry" />
        </mxCell>
        <mxCell id="Eo5Rp94hcjdGjl1MHIDB-3" value="7" style="rhombus;whiteSpace=wrap;html=1;movable=1;resizable=1;rotatable=1;deletable=1;editable=1;locked=0;connectable=1;" vertex="1" parent="Eo5Rp94hcjdGjl1MHIDB-1">
          <mxGeometry x="25" width="30" height="30" as="geometry" />
        </mxCell>
        <mxCell id="Eo5Rp94hcjdGjl1MHIDB-4" style="edgeStyle=orthogonalEdgeStyle;rounded=0;orthogonalLoop=1;jettySize=auto;html=1;entryX=0.5;entryY=1;entryDx=0;entryDy=0;" edge="1" parent="1" source="Qii_kwJFGZZegXUPpGpY-3" target="Eo5Rp94hcjdGjl1MHIDB-2">
          <mxGeometry relative="1" as="geometry" />
        </mxCell>
        <mxCell id="Eo5Rp94hcjdGjl1MHIDB-5" value="поедает" style="edgeLabel;html=1;align=center;verticalAlign=middle;resizable=0;points=[];" vertex="1" connectable="0" parent="Eo5Rp94hcjdGjl1MHIDB-4">
          <mxGeometry x="-0.04" y="2" relative="1" as="geometry">
            <mxPoint as="offset" />
          </mxGeometry>
        </mxCell>
        <mxCell id="ExqjdhlqvmW6sW0sKDD4-1" value="" style="group" vertex="1" connectable="0" parent="1">
          <mxGeometry x="530" y="100" width="80" height="80" as="geometry" />
        </mxCell>
        <mxCell id="ExqjdhlqvmW6sW0sKDD4-2" value="иван-чай" style="ellipse;whiteSpace=wrap;html=1;aspect=fixed;" vertex="1" parent="ExqjdhlqvmW6sW0sKDD4-1">
          <mxGeometry width="80" height="80" as="geometry" />
        </mxCell>
        <mxCell id="ExqjdhlqvmW6sW0sKDD4-3" value="10" style="ellipse;whiteSpace=wrap;html=1;aspect=fixed;" vertex="1" parent="ExqjdhlqvmW6sW0sKDD4-1">
          <mxGeometry x="25" width="30" height="30" as="geometry" />
        </mxCell>
        <mxCell id="ExqjdhlqvmW6sW0sKDD4-4" style="edgeStyle=orthogonalEdgeStyle;rounded=0;orthogonalLoop=1;jettySize=auto;html=1;entryX=1;entryY=0.5;entryDx=0;entryDy=0;" edge="1" parent="1" source="Eo5Rp94hcjdGjl1MHIDB-2" target="ExqjdhlqvmW6sW0sKDD4-2">
          <mxGeometry relative="1" as="geometry" />
        </mxCell>
        <mxCell id="ExqjdhlqvmW6sW0sKDD4-5" value="опыляет" style="edgeLabel;html=1;align=center;verticalAlign=middle;resizable=0;points=[];" vertex="1" connectable="0" parent="ExqjdhlqvmW6sW0sKDD4-4">
          <mxGeometry x="0.0667" y="-3" relative="1" as="geometry">
            <mxPoint x="12" y="-7" as="offset" />
          </mxGeometry>
        </mxCell>
        <mxCell id="NlSZ7CUUUqneuIFkwKLk-1" value="" style="group" vertex="1" connectable="0" parent="1">
          <mxGeometry x="390" y="365" width="80" height="80" as="geometry" />
        </mxCell>
        <mxCell id="NlSZ7CUUUqneuIFkwKLk-2" value="одуванчик" style="ellipse;whiteSpace=wrap;html=1;aspect=fixed;" vertex="1" parent="NlSZ7CUUUqneuIFkwKLk-1">
          <mxGeometry width="80" height="80" as="geometry" />
        </mxCell>
        <mxCell id="NlSZ7CUUUqneuIFkwKLk-3" value="5" style="ellipse;whiteSpace=wrap;html=1;aspect=fixed;" vertex="1" parent="NlSZ7CUUUqneuIFkwKLk-1">
          <mxGeometry x="25" width="30" height="30" as="geometry" />
        </mxCell>
        <mxCell id="NlSZ7CUUUqneuIFkwKLk-4" style="edgeStyle=orthogonalEdgeStyle;rounded=0;orthogonalLoop=1;jettySize=auto;html=1;entryX=0.5;entryY=1;entryDx=0;entryDy=0;" edge="1" parent="1" source="eURhd-FHl6DXdvEiAtk_-3" target="NlSZ7CUUUqneuIFkwKLk-2">
          <mxGeometry relative="1" as="geometry" />
        </mxCell>
        <mxCell id="NlSZ7CUUUqneuIFkwKLk-5" value="опыляет" style="edgeLabel;html=1;align=center;verticalAlign=middle;resizable=0;points=[];" vertex="1" connectable="0" parent="NlSZ7CUUUqneuIFkwKLk-4">
          <mxGeometry x="0.1" y="-1" relative="1" as="geometry">
            <mxPoint x="-1" y="-32" as="offset" />
          </mxGeometry>
        </mxCell>
        <mxCell id="NlSZ7CUUUqneuIFkwKLk-6" style="edgeStyle=orthogonalEdgeStyle;rounded=0;orthogonalLoop=1;jettySize=auto;html=1;entryX=0.5;entryY=1;entryDx=0;entryDy=0;" edge="1" parent="1" source="eURhd-FHl6DXdvEiAtk_-3" target="o_oYlONm8V89n8yl7Vkh-2">
          <mxGeometry relative="1" as="geometry" />
        </mxCell>
        <mxCell id="NlSZ7CUUUqneuIFkwKLk-7" value="живет на" style="edgeLabel;html=1;align=center;verticalAlign=middle;resizable=0;points=[];" vertex="1" connectable="0" parent="NlSZ7CUUUqneuIFkwKLk-6">
          <mxGeometry x="0.2353" relative="1" as="geometry">
            <mxPoint y="-25" as="offset" />
          </mxGeometry>
        </mxCell>
        <mxCell id="Qob6vPTKMR6DTE0tYfrf-1" value="" style="group" vertex="1" connectable="0" parent="1">
          <mxGeometry x="30" y="380" width="80" height="80" as="geometry" />
        </mxCell>
        <mxCell id="Qob6vPTKMR6DTE0tYfrf-2" value="ромашка" style="ellipse;whiteSpace=wrap;html=1;aspect=fixed;" vertex="1" parent="Qob6vPTKMR6DTE0tYfrf-1">
          <mxGeometry width="80" height="80" as="geometry" />
        </mxCell>
        <mxCell id="Qob6vPTKMR6DTE0tYfrf-3" value="1" style="ellipse;whiteSpace=wrap;html=1;aspect=fixed;" vertex="1" parent="Qob6vPTKMR6DTE0tYfrf-1">
          <mxGeometry x="25" width="30" height="30" as="geometry" />
        </mxCell>
        <mxCell id="Qob6vPTKMR6DTE0tYfrf-4" style="edgeStyle=orthogonalEdgeStyle;rounded=0;orthogonalLoop=1;jettySize=auto;html=1;entryX=0;entryY=0.5;entryDx=0;entryDy=0;" edge="1" parent="1" source="Qob6vPTKMR6DTE0tYfrf-2" target="o_oYlONm8V89n8yl7Vkh-2">
          <mxGeometry relative="1" as="geometry" />
        </mxCell>
        <mxCell id="Qob6vPTKMR6DTE0tYfrf-5" value="растет на" style="edgeLabel;html=1;align=center;verticalAlign=middle;resizable=0;points=[];" vertex="1" connectable="0" parent="Qob6vPTKMR6DTE0tYfrf-4">
          <mxGeometry x="-0.1" y="1" relative="1" as="geometry">
            <mxPoint y="-9" as="offset" />
          </mxGeometry>
        </mxCell>
        <mxCell id="9V2Dj3h7sAApyML9YlKa-1" value="" style="group" vertex="1" connectable="0" parent="1">
          <mxGeometry x="180" y="230" width="80" height="80" as="geometry" />
        </mxCell>
        <mxCell id="9V2Dj3h7sAApyML9YlKa-2" value="пчела" style="rhombus;whiteSpace=wrap;html=1;movable=1;resizable=1;rotatable=1;deletable=1;editable=1;locked=0;connectable=1;" vertex="1" parent="9V2Dj3h7sAApyML9YlKa-1">
          <mxGeometry width="80" height="80" as="geometry" />
        </mxCell>
        <mxCell id="9V2Dj3h7sAApyML9YlKa-3" value="1" style="rhombus;whiteSpace=wrap;html=1;movable=1;resizable=1;rotatable=1;deletable=1;editable=1;locked=0;connectable=1;" vertex="1" parent="9V2Dj3h7sAApyML9YlKa-1">
          <mxGeometry x="25" width="30" height="30" as="geometry" />
        </mxCell>
        <mxCell id="9V2Dj3h7sAApyML9YlKa-4" style="edgeStyle=orthogonalEdgeStyle;rounded=0;orthogonalLoop=1;jettySize=auto;html=1;entryX=0;entryY=0;entryDx=50;entryDy=0;exitX=0.5;exitY=1;exitDx=0;exitDy=0;entryPerimeter=0;" edge="1" parent="1" source="9V2Dj3h7sAApyML9YlKa-2" target="o_oYlONm8V89n8yl7Vkh-3">
          <mxGeometry relative="1" as="geometry" />
        </mxCell>
        <mxCell id="9V2Dj3h7sAApyML9YlKa-5" value="живет на" style="edgeLabel;html=1;align=center;verticalAlign=middle;resizable=0;points=[];" vertex="1" connectable="0" parent="9V2Dj3h7sAApyML9YlKa-4">
          <mxGeometry x="0.0462" y="2" relative="1" as="geometry">
            <mxPoint as="offset" />
          </mxGeometry>
        </mxCell>
        <mxCell id="9V2Dj3h7sAApyML9YlKa-6" style="edgeStyle=orthogonalEdgeStyle;rounded=0;orthogonalLoop=1;jettySize=auto;html=1;entryX=0.5;entryY=0;entryDx=0;entryDy=0;exitX=0;exitY=0.5;exitDx=0;exitDy=0;" edge="1" parent="1" source="9V2Dj3h7sAApyML9YlKa-2" target="Qob6vPTKMR6DTE0tYfrf-2">
          <mxGeometry relative="1" as="geometry">
            <mxPoint x="150" y="260" as="targetPoint" />
            <mxPoint x="290" y="270" as="sourcePoint" />
            <Array as="points">
              <mxPoint x="70" y="270" />
            </Array>
          </mxGeometry>
        </mxCell>
        <mxCell id="9V2Dj3h7sAApyML9YlKa-7" value="опыляет" style="edgeLabel;html=1;align=center;verticalAlign=middle;resizable=0;points=[];" vertex="1" connectable="0" parent="9V2Dj3h7sAApyML9YlKa-6">
          <mxGeometry x="0.4462" y="-3" relative="1" as="geometry">
            <mxPoint x="-9" y="-18" as="offset" />
          </mxGeometry>
        </mxCell>
        <mxCell id="8yf0iAXbZsn32rB9BYtc-1" value="" style="group" vertex="1" connectable="0" parent="1">
          <mxGeometry x="300" y="300" width="80" height="80" as="geometry" />
        </mxCell>
        <mxCell id="8yf0iAXbZsn32rB9BYtc-2" value="клевер" style="ellipse;whiteSpace=wrap;html=1;aspect=fixed;" vertex="1" parent="8yf0iAXbZsn32rB9BYtc-1">
          <mxGeometry width="80" height="80" as="geometry" />
        </mxCell>
        <mxCell id="8yf0iAXbZsn32rB9BYtc-3" value="3" style="ellipse;whiteSpace=wrap;html=1;aspect=fixed;" vertex="1" parent="8yf0iAXbZsn32rB9BYtc-1">
          <mxGeometry x="25" width="30" height="30" as="geometry" />
        </mxCell>
        <mxCell id="8yf0iAXbZsn32rB9BYtc-4" style="edgeStyle=orthogonalEdgeStyle;rounded=0;orthogonalLoop=1;jettySize=auto;html=1;entryX=0.5;entryY=0;entryDx=0;entryDy=0;" edge="1" parent="1" source="9V2Dj3h7sAApyML9YlKa-2" target="8yf0iAXbZsn32rB9BYtc-3">
          <mxGeometry relative="1" as="geometry" />
        </mxCell>
        <mxCell id="8yf0iAXbZsn32rB9BYtc-5" value="опыляет" style="edgeLabel;html=1;align=center;verticalAlign=middle;resizable=0;points=[];" vertex="1" connectable="0" parent="8yf0iAXbZsn32rB9BYtc-4">
          <mxGeometry y="-1" relative="1" as="geometry">
            <mxPoint x="-5" y="-11" as="offset" />
          </mxGeometry>
        </mxCell>
        <mxCell id="8yf0iAXbZsn32rB9BYtc-6" style="edgeStyle=orthogonalEdgeStyle;rounded=0;orthogonalLoop=1;jettySize=auto;html=1;entryX=1;entryY=0.625;entryDx=0;entryDy=0;entryPerimeter=0;exitX=0.5;exitY=1;exitDx=0;exitDy=0;" edge="1" parent="1" source="8yf0iAXbZsn32rB9BYtc-2" target="o_oYlONm8V89n8yl7Vkh-2">
          <mxGeometry relative="1" as="geometry" />
        </mxCell>
        <mxCell id="8yf0iAXbZsn32rB9BYtc-7" value="растет на" style="edgeLabel;html=1;align=center;verticalAlign=middle;resizable=0;points=[];" vertex="1" connectable="0" parent="8yf0iAXbZsn32rB9BYtc-6">
          <mxGeometry x="0.3385" y="-2" relative="1" as="geometry">
            <mxPoint x="-3" y="-8" as="offset" />
          </mxGeometry>
        </mxCell>
        <mxCell id="jKWRd7jC2nL9p5Eegd2z-1" value="" style="group" vertex="1" connectable="0" parent="1">
          <mxGeometry x="70" y="140" width="80" height="80" as="geometry" />
        </mxCell>
        <mxCell id="jKWRd7jC2nL9p5Eegd2z-2" value="лютик" style="ellipse;whiteSpace=wrap;html=1;aspect=fixed;" vertex="1" parent="jKWRd7jC2nL9p5Eegd2z-1">
          <mxGeometry width="80" height="80" as="geometry" />
        </mxCell>
        <mxCell id="jKWRd7jC2nL9p5Eegd2z-3" value="2" style="ellipse;whiteSpace=wrap;html=1;aspect=fixed;" vertex="1" parent="jKWRd7jC2nL9p5Eegd2z-1">
          <mxGeometry x="25" width="30" height="30" as="geometry" />
        </mxCell>
        <mxCell id="jY04qQuTJ4LWir9TId-z-1" value="" style="group" vertex="1" connectable="0" parent="1">
          <mxGeometry x="280" y="140" width="80" height="80" as="geometry" />
        </mxCell>
        <mxCell id="jY04qQuTJ4LWir9TId-z-2" value="тысяче-листник" style="ellipse;whiteSpace=wrap;html=1;aspect=fixed;" vertex="1" parent="jY04qQuTJ4LWir9TId-z-1">
          <mxGeometry width="80" height="80" as="geometry" />
        </mxCell>
        <mxCell id="jY04qQuTJ4LWir9TId-z-3" value="6" style="ellipse;whiteSpace=wrap;html=1;aspect=fixed;" vertex="1" parent="jY04qQuTJ4LWir9TId-z-1">
          <mxGeometry x="25" width="30" height="30" as="geometry" />
        </mxCell>
        <mxCell id="jY04qQuTJ4LWir9TId-z-4" style="edgeStyle=orthogonalEdgeStyle;rounded=0;orthogonalLoop=1;jettySize=auto;html=1;entryX=0;entryY=0.5;entryDx=0;entryDy=0;exitX=0.5;exitY=0;exitDx=0;exitDy=0;" edge="1" parent="1" source="9V2Dj3h7sAApyML9YlKa-2" target="jY04qQuTJ4LWir9TId-z-2">
          <mxGeometry relative="1" as="geometry" />
        </mxCell>
        <mxCell id="jY04qQuTJ4LWir9TId-z-5" style="edgeStyle=orthogonalEdgeStyle;rounded=0;orthogonalLoop=1;jettySize=auto;html=1;entryX=1;entryY=0.5;entryDx=0;entryDy=0;exitX=0.5;exitY=0;exitDx=0;exitDy=0;" edge="1" parent="1" source="9V2Dj3h7sAApyML9YlKa-3" target="jKWRd7jC2nL9p5Eegd2z-2">
          <mxGeometry relative="1" as="geometry" />
        </mxCell>
        <mxCell id="jY04qQuTJ4LWir9TId-z-6" value="Опыляет" style="edgeLabel;html=1;align=center;verticalAlign=middle;resizable=0;points=[];" vertex="1" connectable="0" parent="jY04qQuTJ4LWir9TId-z-5">
          <mxGeometry x="-0.5667" y="-1" relative="1" as="geometry">
            <mxPoint as="offset" />
          </mxGeometry>
        </mxCell>
        <mxCell id="8pHCTReCoADjaJfEI5Xi-1" value="" style="group" vertex="1" connectable="0" parent="1">
          <mxGeometry x="430" y="140" width="80" height="80" as="geometry" />
        </mxCell>
        <mxCell id="8pHCTReCoADjaJfEI5Xi-2" value="бабочка адмирал" style="rhombus;whiteSpace=wrap;html=1;movable=1;resizable=1;rotatable=1;deletable=1;editable=1;locked=0;connectable=1;" vertex="1" parent="8pHCTReCoADjaJfEI5Xi-1">
          <mxGeometry width="80" height="80" as="geometry" />
        </mxCell>
        <mxCell id="8pHCTReCoADjaJfEI5Xi-3" value="5" style="rhombus;whiteSpace=wrap;html=1;movable=1;resizable=1;rotatable=1;deletable=1;editable=1;locked=0;connectable=1;" vertex="1" parent="8pHCTReCoADjaJfEI5Xi-1">
          <mxGeometry x="25" width="30" height="30" as="geometry" />
        </mxCell>
        <mxCell id="8pHCTReCoADjaJfEI5Xi-4" style="edgeStyle=orthogonalEdgeStyle;rounded=0;orthogonalLoop=1;jettySize=auto;html=1;entryX=1;entryY=0.5;entryDx=0;entryDy=0;" edge="1" parent="1" source="8pHCTReCoADjaJfEI5Xi-2" target="jY04qQuTJ4LWir9TId-z-2">
          <mxGeometry relative="1" as="geometry" />
        </mxCell>
        <mxCell id="8pHCTReCoADjaJfEI5Xi-5" value="опыляет" style="edgeLabel;html=1;align=center;verticalAlign=middle;resizable=0;points=[];" vertex="1" connectable="0" parent="8pHCTReCoADjaJfEI5Xi-4">
          <mxGeometry x="-0.1" y="-3" relative="1" as="geometry">
            <mxPoint as="offset" />
          </mxGeometry>
        </mxCell>
        <mxCell id="-ASHUInzkn4mo8eBfGBW-1" value="" style="group" vertex="1" connectable="0" parent="1">
          <mxGeometry x="430" y="30" width="80" height="80" as="geometry" />
        </mxCell>
        <mxCell id="-ASHUInzkn4mo8eBfGBW-2" value="мята" style="ellipse;whiteSpace=wrap;html=1;aspect=fixed;" vertex="1" parent="-ASHUInzkn4mo8eBfGBW-1">
          <mxGeometry width="80" height="80" as="geometry" />
        </mxCell>
        <mxCell id="-ASHUInzkn4mo8eBfGBW-3" value="9" style="ellipse;whiteSpace=wrap;html=1;aspect=fixed;" vertex="1" parent="-ASHUInzkn4mo8eBfGBW-1">
          <mxGeometry x="25" width="30" height="30" as="geometry" />
        </mxCell>
        <mxCell id="-ASHUInzkn4mo8eBfGBW-4" style="edgeStyle=orthogonalEdgeStyle;rounded=0;orthogonalLoop=1;jettySize=auto;html=1;entryX=0.5;entryY=1;entryDx=0;entryDy=0;" edge="1" parent="1" source="8pHCTReCoADjaJfEI5Xi-3" target="-ASHUInzkn4mo8eBfGBW-2">
          <mxGeometry relative="1" as="geometry" />
        </mxCell>
        <mxCell id="-ASHUInzkn4mo8eBfGBW-5" value="опыляет" style="edgeLabel;html=1;align=center;verticalAlign=middle;resizable=0;points=[];" vertex="1" connectable="0" parent="-ASHUInzkn4mo8eBfGBW-4">
          <mxGeometry x="0.36" relative="1" as="geometry">
            <mxPoint as="offset" />
          </mxGeometry>
        </mxCell>
      </root>
    </mxGraphModel>
  </diagram>
</mxfile>
